<!-- Generator: Adobe Illustrator 21.0.2, SVG Export Plug-In  -->
<svg version="1.1"
	 xmlns="http://www.w3.org/2000/svg" xmlns:xlink="http://www.w3.org/1999/xlink" xmlns:a="http://ns.adobe.com/AdobeSVGViewerExtensions/3.0/"
	 x="0px" y="0px" width="83.709px" height="50.38px" viewBox="0 0 83.709 50.38" style="enable-background:new 0 0 83.709 50.38;"
	 xml:space="preserve">
<style type="text/css">
	.st0{stroke:#000000;stroke-miterlimit:10;}
	.st1{fill:#FFFFFF;}
	.st2{font-family:'ArialMT';}
	.st3{font-size:17.7234px;}
</style>
<defs>
</defs>
<polygon class="st0" points="83.209,37.239 0.5,49.798 0.5,13.141 83.209,0.582 "/>
<g>
	<path class="st1" d="M23.788,32.394V19.708h9.173v1.497h-7.494v3.885h7.018v1.489h-7.018v4.318h7.789v1.497H23.788z"/>
	<path class="st1" d="M35.735,32.394V19.708h1.722l6.664,9.96v-9.96h1.609v12.687h-1.722l-6.664-9.969v9.969H35.735z"/>
	<path class="st1" d="M54.665,27.418V25.93l5.374-0.009v4.708c-0.825,0.658-1.676,1.153-2.553,1.484s-1.777,0.498-2.7,0.498
		c-1.247,0-2.379-0.267-3.397-0.8s-1.787-1.306-2.306-2.315c-0.519-1.01-0.779-2.138-0.779-3.384c0-1.235,0.258-2.387,0.774-3.458
		c0.516-1.07,1.259-1.865,2.229-2.384c0.969-0.52,2.085-0.779,3.349-0.779c0.917,0,1.747,0.149,2.488,0.446
		c0.741,0.297,1.323,0.711,1.744,1.242c0.421,0.531,0.741,1.223,0.96,2.077l-1.515,0.416c-0.19-0.646-0.427-1.154-0.709-1.523
		s-0.687-0.665-1.211-0.887c-0.525-0.222-1.108-0.333-1.748-0.333c-0.768,0-1.431,0.117-1.991,0.35
		c-0.56,0.234-1.011,0.541-1.354,0.922s-0.61,0.799-0.8,1.255c-0.323,0.785-0.484,1.635-0.484,2.553
		c0,1.131,0.194,2.077,0.584,2.838c0.389,0.762,0.956,1.327,1.7,1.696c0.745,0.369,1.535,0.554,2.372,0.554
		c0.727,0,1.437-0.14,2.129-0.419s1.217-0.579,1.575-0.896v-2.363H54.665z"/>
</g>
</svg>