<!-- Generator: Adobe Illustrator 21.0.2, SVG Export Plug-In  -->
<svg version="1.1"
	 xmlns="http://www.w3.org/2000/svg" xmlns:xlink="http://www.w3.org/1999/xlink" xmlns:a="http://ns.adobe.com/AdobeSVGViewerExtensions/3.0/"
	 x="0px" y="0px" width="204.142px" height="52.443px" viewBox="0 0 204.142 52.443"
	 style="enable-background:new 0 0 204.142 52.443;" xml:space="preserve">
<style type="text/css">
	.st0{clip-path:url(#SVGID_4_);fill:#424243;}
	.st1{clip-path:url(#SVGID_5_);fill:#424243;}
	.st2{clip-path:url(#SVGID_5_);fill:#C85A32;}
	.st3{fill:#C85A32;}
	.st4{fill:#424243;}
	.st5{clip-path:url(#SVGID_6_);fill:#424243;}
	.st6{clip-path:url(#SVGID_8_);fill:#424243;}
	.st7{clip-path:url(#SVGID_10_);fill:#424243;}
	.st8{clip-path:url(#SVGID_10_);fill:#C85A32;}
	.st9{clip-path:url(#SVGID_12_);fill:#424243;}
</style>
<defs>
</defs>
<g>
	<g>
		<defs>
			<rect id="SVGID_3_" width="204.142" height="52.443"/>
		</defs>
		<clipPath id="SVGID_4_">
			<use xlink:href="#SVGID_3_"  style="overflow:visible;"/>
		</clipPath>
		<path class="st0" d="M5.54,49.281c-0.622,0.194-1.194,0.264-2.162,0.264c-2.112,0-2.869-0.959-2.869-3.643
			c0-2.683,0.757-3.642,2.869-3.642c0.937,0,1.408,0.061,2.02,0.225l-0.124,0.969c-0.631-0.05-1.05-0.071-1.895-0.071
			c-1.163,0-1.521,0.591-1.521,2.519c0,1.928,0.358,2.521,1.521,2.521c0.897,0,1.448-0.019,2.051-0.103L5.54,49.281z"/>
		<path class="st0" d="M11.273,46.923c0,1.92-0.664,2.635-2.459,2.635c-1.806,0-2.478-0.715-2.478-2.635
			c0-1.916,0.673-2.641,2.478-2.641C10.61,44.282,11.273,45.007,11.273,46.923 M7.632,46.923c0,1.287,0.263,1.645,1.182,1.645
			c0.897,0,1.173-0.358,1.173-1.645c0-1.294-0.276-1.651-1.173-1.651C7.895,45.272,7.632,45.629,7.632,46.923"/>
		<path class="st0" d="M17.149,46.923c0,1.92-0.662,2.635-2.458,2.635c-1.807,0-2.48-0.715-2.48-2.635
			c0-1.916,0.673-2.641,2.48-2.641C16.487,44.282,17.149,45.007,17.149,46.923 M13.508,46.923c0,1.287,0.264,1.645,1.184,1.645
			c0.896,0,1.172-0.358,1.172-1.645c0-1.294-0.276-1.651-1.172-1.651C13.773,45.272,13.508,45.629,13.508,46.923"/>
		<path class="st0" d="M19.415,45.169c0.468-0.519,1.316-0.877,2.049-0.877c1.213,0,1.703,0.98,1.703,2.673
			c0,1.958-0.652,2.58-1.917,2.58c-0.613,0-1.225-0.143-1.734-0.489c0.031,0.346,0.041,0.683,0.031,1.041v1.316h-1.235v-6.988h1.019
			L19.415,45.169z M19.547,48.321c0.499,0.113,0.857,0.217,1.335,0.217c0.735,0,1.011-0.257,1.011-1.583
			c0-1.264-0.245-1.643-0.889-1.643c-0.48,0-0.875,0.224-1.457,0.623V48.321z"/>
		<path class="st0" d="M25.432,47.446c0.102,0.906,0.48,1.092,1.337,1.092c0.48,0,1.195-0.052,1.797-0.124l0.111,0.796
			c-0.531,0.253-1.428,0.336-2.06,0.336c-1.816,0-2.5-0.735-2.5-2.632c0-1.979,0.725-2.632,2.417-2.632
			c1.623,0,2.276,0.601,2.276,1.735c0,0.897-0.41,1.429-1.338,1.429H25.432z M27.125,46.578c0.399,0,0.451-0.318,0.451-0.583
			c0-0.529-0.224-0.734-0.99-0.734c-0.858,0-1.141,0.266-1.173,1.318H27.125z"/>
		<path class="st0" d="M33.187,45.445h-0.358c-0.478,0-0.938,0.163-1.653,0.449v3.53h-1.246v-5h0.97l0.114,0.734
			c0.683-0.561,1.408-0.877,2.058-0.877h0.246L33.187,45.445z"/>
		<path class="st0" d="M34.104,44.528c0.714-0.133,1.837-0.246,2.5-0.246c1.234,0,1.877,0.409,1.877,1.745v3.397h-0.981
			l-0.132-0.765c-0.356,0.397-1.01,0.877-1.907,0.877c-0.916,0-1.581-0.51-1.581-1.45v-0.51c0-0.795,0.541-1.254,1.478-1.254h1.878
			v-0.306c-0.01-0.572-0.202-0.715-0.918-0.715c-0.459,0-1.307,0.039-2.091,0.102L34.104,44.528z M35.114,47.925
			c0,0.428,0.203,0.613,0.653,0.613c0.388,0,0.959-0.176,1.469-0.594v-0.775h-1.59c-0.408,0.02-0.531,0.224-0.531,0.559V47.925z"/>
		<path class="st0" d="M41.49,47.862c0,0.439,0.153,0.581,0.603,0.581h0.682l0.133,0.919c-0.347,0.112-0.979,0.173-1.285,0.173
			c-0.878,0-1.359-0.531-1.359-1.459v-2.755h-0.909v-0.845l0.9-0.052v-1.44h1.234v1.44h1.469v0.897H41.49V47.862z"/>
		<path class="st0" d="M44.848,42.251c0.244,0,0.356,0.133,0.356,0.358v0.561c0,0.235-0.113,0.358-0.356,0.358h-0.572
			c-0.235,0-0.356-0.122-0.356-0.358v-0.561c0-0.225,0.122-0.358,0.356-0.358H44.848z M43.948,44.425h1.235v5h-1.235V44.425z"/>
		<path class="st0" d="M49.662,49.126c-0.071,0.185-0.214,0.298-0.419,0.298h-1.081c-0.193,0-0.358-0.113-0.408-0.298l-1.714-4.702
			h1.307l1.041,3.294c0.082,0.286,0.174,0.582,0.245,0.868h0.132l0.264-0.868l1.032-3.294h1.316L49.662,49.126z"/>
		<path class="st0" d="M53.193,47.446c0.102,0.906,0.48,1.092,1.335,1.092c0.478,0,1.194-0.052,1.795-0.124l0.113,0.796
			c-0.53,0.253-1.43,0.336-2.061,0.336c-1.816,0-2.5-0.735-2.5-2.632c0-1.979,0.725-2.632,2.42-2.632
			c1.62,0,2.274,0.601,2.274,1.735c0,0.897-0.407,1.429-1.337,1.429H53.193z M54.886,46.578c0.397,0,0.449-0.318,0.449-0.583
			c0-0.529-0.224-0.734-0.99-0.734c-0.856,0-1.143,0.266-1.173,1.318H54.886z"/>
		<path class="st0" d="M60.945,47.434l-0.581,1.99h-1.306l2.113-6.705c0.06-0.214,0.244-0.336,0.459-0.336h1.246
			c0.213,0,0.397,0.122,0.459,0.336l2.112,6.705h-1.307l-0.581-1.99H60.945z M62.547,43.956c-0.052-0.195-0.123-0.409-0.152-0.603
			h-0.276l-0.163,0.603l-0.705,2.427h2.001L62.547,43.956z"/>
		<path class="st0" d="M70.708,49.424h-0.979l-0.092-0.675c-0.713,0.542-1.378,0.808-2.091,0.808c-0.909,0-1.388-0.471-1.388-1.389
			v-3.744h1.246v3.376c-0.012,0.531,0.143,0.704,0.61,0.704c0.429,0,0.848-0.195,1.46-0.55v-3.53h1.234V49.424z"/>
		<path class="st0" d="M73.758,47.862c0,0.439,0.153,0.581,0.603,0.581h0.682l0.133,0.919c-0.346,0.112-0.979,0.173-1.287,0.173
			c-0.874,0-1.355-0.531-1.355-1.459v-2.755h-0.91v-0.845l0.9-0.052v-1.44h1.234v1.44h1.47v0.897h-1.47V47.862z"/>
		<path class="st0" d="M80.892,46.923c0,1.92-0.664,2.635-2.46,2.635c-1.806,0-2.479-0.715-2.479-2.635
			c0-1.916,0.673-2.641,2.479-2.641C80.228,44.282,80.892,45.007,80.892,46.923 M77.248,46.923c0,1.287,0.266,1.645,1.184,1.645
			c0.897,0,1.173-0.358,1.173-1.645c0-1.294-0.276-1.651-1.173-1.651C77.514,45.272,77.248,45.629,77.248,46.923"/>
		<path class="st0" d="M83.134,45.159c0.653-0.572,1.265-0.877,1.958-0.877c0.675,0,1.104,0.285,1.277,0.838
			c0.632-0.563,1.234-0.838,1.896-0.838c0.888,0,1.358,0.491,1.358,1.388v3.755h-1.215v-3.378c-0.01-0.51-0.153-0.713-0.624-0.713
			c-0.416,0-0.692,0.163-1.345,0.602v3.49h-1.193v-3.378c0.01-0.541-0.196-0.713-0.624-0.713c-0.399,0-0.673,0.141-1.336,0.591v3.5
			h-1.234v-5h1.009L83.134,45.159z"/>
		<path class="st0" d="M95.692,46.923c0,1.92-0.664,2.635-2.459,2.635c-1.806,0-2.478-0.715-2.478-2.635
			c0-1.916,0.673-2.641,2.478-2.641C95.029,44.282,95.692,45.007,95.692,46.923 M92.05,46.923c0,1.287,0.265,1.645,1.184,1.645
			c0.898,0,1.173-0.358,1.173-1.645c0-1.294-0.275-1.651-1.173-1.651C92.314,45.272,92.05,45.629,92.05,46.923"/>
		<path class="st0" d="M98.508,47.862c0,0.439,0.153,0.581,0.603,0.581h0.684l0.131,0.919c-0.347,0.112-0.979,0.173-1.286,0.173
			c-0.875,0-1.356-0.531-1.356-1.459v-2.755h-0.909v-0.845l0.898-0.052v-1.44h1.234v1.44h1.47v0.897h-1.47V47.862z"/>
		<path class="st0" d="M101.865,42.251c0.245,0,0.358,0.133,0.358,0.358v0.561c0,0.235-0.113,0.358-0.358,0.358h-0.57
			c-0.236,0-0.358-0.122-0.358-0.358v-0.561c0-0.225,0.122-0.358,0.358-0.358H101.865z M100.967,44.425h1.235v5h-1.235V44.425z"/>
		<path class="st0" d="M106.679,49.126c-0.07,0.185-0.214,0.298-0.417,0.298h-1.082c-0.194,0-0.355-0.113-0.407-0.298l-1.715-4.702
			h1.307l1.04,3.294c0.082,0.286,0.175,0.582,0.246,0.868h0.131l0.266-0.868l1.03-3.294h1.316L106.679,49.126z"/>
		<path class="st0" d="M110.209,47.446c0.104,0.906,0.481,1.092,1.338,1.092c0.478,0,1.193-0.052,1.794-0.124l0.113,0.796
			c-0.53,0.253-1.428,0.336-2.062,0.336c-1.813,0-2.498-0.735-2.498-2.632c0-1.979,0.725-2.632,2.418-2.632
			c1.623,0,2.276,0.601,2.276,1.735c0,0.897-0.408,1.429-1.338,1.429H110.209z M111.904,46.578c0.395,0,0.447-0.318,0.447-0.583
			c0-0.529-0.224-0.734-0.99-0.734c-0.857,0-1.143,0.266-1.172,1.318H111.904z"/>
		<path class="st0" d="M120.952,49.424l-0.561-2.183c-0.143-0.461-0.388-0.634-0.817-0.634l-1.266-0.01v2.827h-1.264v-7.041
			c0.806-0.081,1.357-0.091,2.56-0.091c1.736,0,2.45,0.458,2.45,2.06c0,1.051-0.347,1.653-1.316,1.775v0.052
			c0.346,0.081,0.785,0.367,0.939,1.04l0.632,2.205H120.952z M119.574,45.558c0.897-0.012,1.184-0.257,1.184-1.125
			c0-0.866-0.287-1.091-1.184-1.091h-1.266v2.215H119.574z"/>
		<path class="st0" d="M124.409,47.446c0.102,0.906,0.48,1.092,1.338,1.092c0.48,0,1.194-0.052,1.795-0.124l0.112,0.796
			c-0.532,0.253-1.427,0.336-2.06,0.336c-1.817,0-2.501-0.735-2.501-2.632c0-1.979,0.725-2.632,2.418-2.632
			c1.624,0,2.276,0.601,2.276,1.735c0,0.897-0.408,1.429-1.338,1.429H124.409z M126.102,46.578c0.399,0,0.451-0.318,0.451-0.583
			c0-0.529-0.224-0.734-0.99-0.734c-0.857,0-1.143,0.266-1.173,1.318H126.102z"/>
		<path class="st0" d="M129.828,47.169c-0.889-0.256-1.173-0.674-1.173-1.471c0-1.101,0.572-1.417,2.042-1.417
			c0.682,0.01,1.6,0.082,2.213,0.185l-0.092,0.856c-0.633-0.02-1.277-0.039-1.909-0.039c-0.836,0-1.06,0.009-1.06,0.428
			c0,0.397,0.215,0.408,0.683,0.54l1.348,0.367c0.826,0.234,1.193,0.561,1.193,1.44c0,1.224-0.673,1.478-2.233,1.478
			c-0.337,0-1.184-0.01-2.091-0.163l0.082-0.867c0.398,0.032,1.059,0.041,1.702,0.041c1.062,0,1.348-0.083,1.348-0.48
			c0-0.377-0.266-0.409-0.735-0.54L129.828,47.169z"/>
		<path class="st0" d="M135.275,47.446c0.104,0.906,0.48,1.092,1.338,1.092c0.479,0,1.192-0.052,1.795-0.124l0.113,0.796
			c-0.532,0.253-1.429,0.336-2.062,0.336c-1.816,0-2.5-0.735-2.5-2.632c0-1.979,0.726-2.632,2.419-2.632
			c1.622,0,2.275,0.601,2.275,1.735c0,0.897-0.407,1.429-1.336,1.429H135.275z M136.97,46.578c0.395,0,0.447-0.318,0.447-0.583
			c0-0.529-0.224-0.734-0.99-0.734c-0.856,0-1.141,0.266-1.173,1.318H136.97z"/>
		<path class="st0" d="M139.744,44.528c0.714-0.133,1.835-0.246,2.498-0.246c1.235,0,1.878,0.409,1.878,1.745v3.397h-0.98
			l-0.132-0.765c-0.358,0.397-1.01,0.877-1.908,0.877c-0.918,0-1.583-0.51-1.583-1.45v-0.51c0-0.795,0.542-1.254,1.48-1.254h1.878
			v-0.306c-0.01-0.572-0.205-0.715-0.918-0.715c-0.46,0-1.307,0.039-2.092,0.102L139.744,44.528z M140.754,47.925
			c0,0.428,0.205,0.613,0.652,0.613c0.388,0,0.959-0.176,1.47-0.594v-0.775h-1.592c-0.41,0.02-0.53,0.224-0.53,0.559V47.925z"/>
		<path class="st0" d="M148.721,45.445h-0.358c-0.48,0-0.938,0.163-1.653,0.449v3.53h-1.244v-5h0.97l0.113,0.734
			c0.684-0.561,1.409-0.877,2.061-0.877h0.245L148.721,45.445z"/>
		<path class="st0" d="M153.648,49.24c-0.518,0.215-1.203,0.306-1.835,0.306c-1.785,0-2.438-0.693-2.438-2.632
			c0-1.928,0.664-2.632,2.449-2.632c0.489,0,1.222,0.071,1.745,0.285l-0.144,0.774c-0.499-0.019-1.02-0.019-1.386-0.019
			c-1.023,0-1.368,0.347-1.368,1.592c0,1.255,0.345,1.611,1.368,1.611c0.306,0,0.949-0.019,1.499-0.101L153.648,49.24z"/>
		<path class="st0" d="M155.933,44.119c0,0.367-0.03,0.724-0.082,1.01c0.695-0.532,1.408-0.848,2.113-0.848
			c0.887,0,1.377,0.491,1.377,1.388v3.755h-1.244v-3.378c0-0.561-0.132-0.713-0.532-0.713c-0.489,0-0.959,0.213-1.642,0.612v3.479
			h-1.244v-7.141h1.255V44.119z"/>
		<path class="st0" d="M168.757,48.953c0,0.306-0.163,0.471-0.471,0.471h-1.008c-0.275,0-0.419-0.124-0.53-0.388l-1.978-4.316
			c-0.135-0.286-0.35-0.724-0.42-1.051h-0.122c0.05,0.358,0.061,0.715,0.061,1.06v4.695h-1.255v-6.572
			c0-0.306,0.174-0.468,0.478-0.468h0.99c0.275,0,0.407,0.122,0.53,0.388l1.918,4.194c0.133,0.305,0.338,0.734,0.489,1.111h0.124
			c-0.032-0.388-0.052-0.764-0.052-1.141v-4.552h1.245V48.953z"/>
		<path class="st0" d="M171.328,47.446c0.104,0.906,0.48,1.092,1.338,1.092c0.48,0,1.193-0.052,1.794-0.124l0.113,0.796
			c-0.53,0.253-1.427,0.336-2.061,0.336c-1.815,0-2.5-0.735-2.5-2.632c0-1.979,0.726-2.632,2.419-2.632
			c1.622,0,2.276,0.601,2.276,1.735c0,0.897-0.408,1.429-1.339,1.429H171.328z M173.022,46.578c0.397,0,0.449-0.318,0.449-0.583
			c0-0.529-0.224-0.734-0.99-0.734c-0.857,0-1.143,0.266-1.172,1.318H173.022z"/>
		<path class="st0" d="M177.489,47.862c0,0.439,0.154,0.581,0.602,0.581h0.686l0.133,0.919c-0.349,0.112-0.981,0.173-1.287,0.173
			c-0.876,0-1.357-0.531-1.357-1.459v-2.755h-0.907v-0.845l0.897-0.052v-1.44h1.234v1.44h1.47v0.897h-1.47V47.862z"/>
		<path class="st0" d="M186.213,49.086c-0.051,0.215-0.224,0.338-0.438,0.338h-1.053c-0.233,0-0.417-0.152-0.458-0.388l-0.603-3.071
			c-0.051-0.273-0.07-0.542-0.132-0.816h-0.123l-0.143,0.816l-0.581,3.071c-0.041,0.236-0.234,0.388-0.471,0.388h-1.029
			c-0.224,0-0.408-0.124-0.449-0.338l-1.327-4.661h1.265l0.827,3.438c0.061,0.266,0.113,0.529,0.132,0.797h0.133
			c0.051-0.267,0.112-0.531,0.153-0.797l0.611-3.071c0.042-0.225,0.205-0.367,0.439-0.367h1.01c0.235,0,0.408,0.142,0.449,0.377
			l0.594,3.061c0.039,0.266,0.101,0.521,0.153,0.797h0.131c0.042-0.276,0.071-0.531,0.134-0.797l0.827-3.438h1.264L186.213,49.086z"
			/>
		<path class="st0" d="M193.088,46.923c0,1.92-0.662,2.635-2.458,2.635c-1.806,0-2.479-0.715-2.479-2.635
			c0-1.916,0.673-2.641,2.479-2.641C192.426,44.282,193.088,45.007,193.088,46.923 M189.447,46.923c0,1.287,0.264,1.645,1.184,1.645
			c0.897,0,1.174-0.358,1.174-1.645c0-1.294-0.277-1.651-1.174-1.651C189.711,45.272,189.447,45.629,189.447,46.923"/>
		<path class="st0" d="M197.505,45.445h-0.356c-0.481,0-0.94,0.163-1.653,0.449v3.53h-1.246v-5h0.969l0.113,0.734
			c0.684-0.561,1.409-0.877,2.06-0.877h0.245L197.505,45.445z"/>
		<path class="st0" d="M199.648,47.036c0.03,0.266,0.061,0.531,0.061,0.765v1.624h-1.244v-7.141h1.253v3.038
			c0,0.307-0.02,0.592-0.07,0.878h0.542l1.366-1.775h1.408l-1.397,1.775c-0.113,0.174-0.306,0.346-0.419,0.418v0.02
			c0.113,0.072,0.306,0.298,0.419,0.48l1.559,2.307h-1.406l-1.519-2.389H199.648z"/>
	</g>
	<g>
		<defs>
			<rect id="SVGID_2_" width="204.142" height="52.443"/>
		</defs>
		<clipPath id="SVGID_5_">
			<use xlink:href="#SVGID_2_"  style="overflow:visible;"/>
		</clipPath>
		<path class="st1" d="M63.944,31.131c-2.684,0.838-5.15,1.144-9.333,1.144c-9.111,0-12.37-4.138-12.37-15.714
			c0-11.58,3.259-15.718,12.37-15.718c4.049,0,6.077,0.264,8.717,0.968L62.8,5.995c-2.73-0.22-4.534-0.31-8.188-0.31
			c-5.019,0-6.56,2.554-6.56,10.876c0,8.319,1.541,10.871,6.56,10.871c3.875,0,6.25-0.087,8.848-0.439L63.944,31.131z"/>
		<path class="st1" d="M73.717,23.163l-2.508,8.585h-5.637l9.114-28.925c0.264-0.922,1.058-1.452,1.982-1.452h5.37
			c0.924,0,1.717,0.53,1.981,1.452l9.114,28.925h-5.635l-2.511-8.585H73.717z M80.628,8.151c-0.22-0.837-0.528-1.761-0.658-2.596
			h-1.191l-0.704,2.596l-3.037,10.478h8.629L80.628,8.151z"/>
		<path class="st1" d="M113.601,31.749l-2.422-9.423c-0.616-1.981-1.672-2.729-3.522-2.729l-5.458-0.043v12.195h-5.459V1.371
			c3.479-0.351,5.855-0.397,11.049-0.397c7.485,0,10.566,1.983,10.566,8.894c0,4.535-1.497,7.132-5.679,7.662v0.218
			c1.497,0.353,3.39,1.585,4.048,4.491l2.731,9.51H113.601z M107.658,15.063c3.875-0.045,5.106-1.101,5.106-4.843
			c0-3.742-1.231-4.712-5.106-4.712h-5.458v9.555H107.658z"/>
		<path class="st2" d="M149.129,29.722c0,1.32-0.704,2.026-2.025,2.026h-4.358c-1.19,0-1.804-0.53-2.289-1.674l-8.541-18.622
			c-0.572-1.232-1.497-3.124-1.806-4.534h-0.529c0.22,1.541,0.264,3.083,0.264,4.58v20.251h-5.413V3.395
			c0-1.32,0.748-2.025,2.069-2.025h4.27c1.189,0,1.76,0.53,2.289,1.673l8.275,18.094c0.573,1.322,1.454,3.169,2.114,4.799h0.527
			c-0.131-1.674-0.219-3.302-0.219-4.931V1.371h5.37V29.722z"/>
		<path class="st2" d="M175.543,31.483c-4.004,0.352-8.936,0.352-13.383,0.352c-4.007,0-6.471-2.201-6.516-5.767V7.051
			c0.045-3.566,2.554-5.768,6.516-5.768c4.446,0,9.378,0,13.383,0.352l-0.264,4.226h-11.885c-1.585,0-2.201,0.662-2.201,2.554v5.328
			h12.457v4.225h-12.457v6.779c0,1.893,0.616,2.554,2.201,2.554h11.885L175.543,31.483z"/>
		<polygon class="st2" points="193.285,6.083 193.285,31.749 187.738,31.749 187.738,6.083 178.448,6.083 178.448,1.371 
			202.662,1.371 202.662,6.083 		"/>
	</g>
	<rect x="17.119" y="0.626" class="st3" width="14.637" height="14.635"/>
	<rect x="17.119" y="17.216" class="st3" width="14.637" height="14.637"/>
	<rect x="0.529" y="17.216" class="st3" width="14.635" height="14.637"/>
	<polygon class="st4" points="4.852,4.482 4.174,0.626 15.163,0.626 15.163,15.26 0.529,15.26 0.529,4.263 	"/>
	<g>
		<defs>
			<rect id="SVGID_1_" width="204.142" height="52.443"/>
		</defs>
		<clipPath id="SVGID_6_">
			<use xlink:href="#SVGID_1_"  style="overflow:visible;"/>
		</clipPath>
		<path class="st5" d="M0.529,13.158c0,1.159,0.942,2.102,2.104,2.102h10.428c1.16,0,2.102-0.943,2.102-2.102V2.729
			c0-1.161-0.942-2.103-2.102-2.103H2.633c-1.161,0-2.104,0.942-2.104,2.103V13.158z"/>
	</g>
</g>
</svg>