<!-- Generator: Adobe Illustrator 21.0.2, SVG Export Plug-In  -->
<svg version="1.1"
	 xmlns="http://www.w3.org/2000/svg" xmlns:xlink="http://www.w3.org/1999/xlink" xmlns:a="http://ns.adobe.com/AdobeSVGViewerExtensions/3.0/"
	 x="0px" y="0px" width="387.299px" height="83.452px" viewBox="0 0 387.299 83.452"
	 style="enable-background:new 0 0 387.299 83.452;" xml:space="preserve">
<style type="text/css">
	.st0{fill:#FFFFFF;}
</style>
<defs>
</defs>
<path class="st0" d="M5.567,20.111c0.18,1.275,0.535,2.228,1.063,2.859c0.967,1.149,2.623,1.723,4.969,1.723
	c1.405,0,2.546-0.151,3.422-0.454c1.663-0.581,2.494-1.66,2.494-3.239c0-0.921-0.407-1.635-1.222-2.14
	c-0.815-0.492-2.107-0.928-3.876-1.306l-3.022-0.663c-2.97-0.656-5.01-1.37-6.121-2.14c-1.881-1.288-2.822-3.301-2.822-6.04
	c0-2.5,0.92-4.576,2.76-6.23C5.055,0.827,7.758,0,11.323,0c2.978,0,5.517,0.779,7.62,2.338c2.102,1.56,3.205,3.822,3.307,6.789
	h-5.605c-0.104-1.679-0.855-2.872-2.252-3.579c-0.932-0.467-2.09-0.701-3.475-0.701c-1.541,0-2.77,0.303-3.689,0.909
	S5.851,7.209,5.851,8.294c0,0.997,0.453,1.742,1.359,2.235c0.582,0.328,1.818,0.714,3.708,1.155l4.898,1.155
	c2.147,0.505,3.756,1.18,4.828,2.026c1.664,1.313,2.496,3.213,2.496,5.7c0,2.551-0.986,4.668-2.957,6.353
	c-1.972,1.686-4.757,2.528-8.355,2.528c-3.675,0-6.565-0.831-8.671-2.491C1.052,25.297,0,23.014,0,20.111H5.567z"/>
<path class="st0" d="M47.096,5.757h-14.77v5.927h13.558v4.848H32.325v7.177h15.452v5.019H26.625V0.814h20.47V5.757z"/>
<path class="st0" d="M60.195,0.814h6.6l9.876,27.913h-6.325l-1.842-5.738H58.224l-1.892,5.738h-6.101L60.195,0.814z M59.811,18.179
	h7.149L63.433,7.196L59.811,18.179z"/>
<path class="st0" d="M96.199,0.814v4.942h-8.351v22.97h-5.87V5.757h-8.388V0.814H96.199z"/>
<path class="st0" d="M117.429,0.814h6.6l9.876,27.913h-6.325l-1.842-5.738h-10.279l-1.892,5.738h-6.101L117.429,0.814z
	 M117.045,18.179h7.149l-3.526-10.983L117.045,18.179z"/>
<path class="st0" d="M140.788,8.086v12.441c0,1.174,0.138,2.058,0.414,2.651c0.49,1.048,1.451,1.572,2.883,1.572
	c1.834,0,3.09-0.745,3.769-2.235c0.351-0.807,0.527-1.875,0.527-3.2V8.086h5.473v20.641h-5.245v-2.916
	c-0.051,0.063-0.176,0.253-0.377,0.568c-0.201,0.316-0.441,0.594-0.718,0.833c-0.844,0.758-1.659,1.276-2.446,1.553
	c-0.787,0.278-1.709,0.417-2.766,0.417c-3.046,0-5.098-1.098-6.156-3.295c-0.592-1.212-0.887-2.998-0.887-5.359V8.086H140.788z"/>
<path class="st0" d="M156.537,12.119V8.275h2.878V2.519h5.34v5.756h3.352v3.844h-3.352v10.908c0,0.845,0.107,1.373,0.322,1.58
	c0.215,0.208,0.871,0.313,1.97,0.313c0.164,0,0.338-0.003,0.52-0.009c0.183-0.006,0.363-0.015,0.54-0.028v4.033l-2.556,0.095
	c-2.551,0.087-4.293-0.354-5.227-1.326c-0.606-0.618-0.909-1.572-0.909-2.859V12.119H156.537z"/>
<path class="st0" d="M188.011,26.202c-1.742,2.151-4.387,3.226-7.934,3.226c-3.548,0-6.192-1.075-7.934-3.226
	s-2.614-4.739-2.614-7.767c0-2.977,0.871-5.556,2.614-7.738c1.742-2.183,4.387-3.274,7.934-3.274c3.547,0,6.192,1.091,7.934,3.274
	c1.742,2.182,2.613,4.761,2.613,7.738C190.624,21.462,189.753,24.051,188.011,26.202z M183.693,23.219
	c0.846-1.122,1.269-2.717,1.269-4.784s-0.423-3.659-1.269-4.774s-2.058-1.673-3.636-1.673s-2.793,0.558-3.645,1.673
	c-0.852,1.116-1.278,2.707-1.278,4.774s0.426,3.662,1.278,4.784c0.852,1.122,2.067,1.683,3.645,1.683S182.847,24.341,183.693,23.219
	z"/>
<path class="st0" d="M210.356,9.27c1.35,1.117,2.027,2.97,2.027,5.558v13.9h-5.53V16.171c0-1.085-0.143-1.919-0.432-2.499
	c-0.527-1.061-1.529-1.59-3.007-1.59c-1.817,0-3.064,0.776-3.741,2.329c-0.351,0.821-0.526,1.868-0.526,3.144v11.173h-5.397V8.124
	h5.227v3.011c0.691-1.061,1.345-1.824,1.961-2.292c1.106-0.833,2.508-1.249,4.205-1.249C207.265,7.594,209.003,8.152,210.356,9.27z"
	/>
<path class="st0" d="M233.839,26.202c-1.743,2.151-4.388,3.226-7.935,3.226c-3.547,0-6.192-1.075-7.935-3.226
	c-1.742-2.151-2.613-4.739-2.613-7.767c0-2.977,0.871-5.556,2.613-7.738c1.743-2.183,4.388-3.274,7.935-3.274
	c3.547,0,6.192,1.091,7.935,3.274c1.742,2.182,2.613,4.761,2.613,7.738C236.451,21.462,235.58,24.051,233.839,26.202z
	 M229.52,23.219c0.846-1.122,1.27-2.717,1.27-4.784s-0.424-3.659-1.27-4.774c-0.845-1.116-2.057-1.673-3.635-1.673
	c-1.579,0-2.793,0.558-3.646,1.673c-0.852,1.116-1.279,2.707-1.279,4.774s0.427,3.662,1.279,4.784
	c0.852,1.122,2.067,1.683,3.646,1.683C227.463,24.902,228.675,24.341,229.52,23.219z"/>
<path class="st0" d="M265.293,8.162c0.883,0.353,1.685,0.972,2.404,1.856c0.581,0.719,0.972,1.603,1.174,2.651
	c0.127,0.694,0.191,1.711,0.191,3.049l-0.038,13.01h-5.53V15.585c0-0.782-0.127-1.426-0.378-1.931
	c-0.48-0.959-1.364-1.439-2.652-1.439c-1.489,0-2.518,0.618-3.086,1.856c-0.291,0.657-0.435,1.445-0.435,2.367v12.29h-5.434v-12.29
	c0-1.225-0.127-2.114-0.379-2.67c-0.454-0.997-1.345-1.496-2.67-1.496c-1.541,0-2.575,0.499-3.106,1.496
	c-0.291,0.568-0.435,1.414-0.435,2.537v12.423h-5.473V8.124h5.246v3.011c0.668-1.073,1.299-1.837,1.893-2.292
	c1.048-0.807,2.405-1.212,4.071-1.212c1.579,0,2.853,0.348,3.825,1.042c0.782,0.644,1.376,1.47,1.781,2.481
	c0.706-1.212,1.583-2.102,2.632-2.671c1.111-0.568,2.347-0.852,3.711-0.852C263.512,7.631,264.409,7.808,265.293,8.162z"/>
<path class="st0" d="M290.46,26.202c-1.743,2.151-4.387,3.226-7.935,3.226c-3.547,0-6.192-1.075-7.934-3.226
	c-1.742-2.151-2.614-4.739-2.614-7.767c0-2.977,0.872-5.556,2.614-7.738c1.742-2.183,4.387-3.274,7.934-3.274
	c3.548,0,6.192,1.091,7.935,3.274c1.743,2.182,2.613,4.761,2.613,7.738C293.074,21.462,292.203,24.051,290.46,26.202z
	 M286.142,23.219c0.845-1.122,1.269-2.717,1.269-4.784s-0.424-3.659-1.269-4.774s-2.058-1.673-3.636-1.673
	c-1.578,0-2.792,0.558-3.646,1.673c-0.851,1.116-1.278,2.707-1.278,4.774s0.427,3.662,1.278,4.784
	c0.853,1.122,2.068,1.683,3.646,1.683C284.084,24.902,285.297,24.341,286.142,23.219z"/>
<path class="st0" d="M301.538,8.086v12.441c0,1.174,0.138,2.058,0.415,2.651c0.489,1.048,1.451,1.572,2.882,1.572
	c1.834,0,3.09-0.745,3.769-2.235c0.351-0.807,0.528-1.875,0.528-3.2V8.086h5.473v20.641h-5.246v-2.916
	c-0.05,0.063-0.176,0.253-0.377,0.568c-0.202,0.316-0.441,0.594-0.718,0.833c-0.844,0.758-1.659,1.276-2.446,1.553
	c-0.786,0.278-1.708,0.417-2.766,0.417c-3.047,0-5.098-1.098-6.156-3.295c-0.592-1.212-0.888-2.998-0.888-5.359V8.086H301.538z"/>
<path class="st0" d="M323.259,22.137c0.115,0.96,0.362,1.641,0.742,2.045c0.672,0.719,1.916,1.079,3.729,1.079
	c1.065,0,1.913-0.157,2.541-0.473c0.628-0.316,0.942-0.789,0.942-1.42c0-0.606-0.253-1.067-0.759-1.382s-2.387-0.858-5.646-1.629
	c-2.346-0.58-3.997-1.306-4.957-2.178c-0.96-0.859-1.44-2.096-1.44-3.712c0-1.906,0.75-3.544,2.249-4.913
	c1.499-1.37,3.608-2.055,6.329-2.055c2.581,0,4.684,0.515,6.31,1.543c1.626,1.029,2.558,2.806,2.799,5.331h-5.397
	c-0.076-0.694-0.272-1.243-0.589-1.647c-0.596-0.732-1.608-1.098-3.039-1.098c-1.177,0-2.015,0.183-2.515,0.549
	c-0.5,0.367-0.75,0.795-0.75,1.288c0,0.619,0.265,1.067,0.798,1.345c0.531,0.291,2.409,0.789,5.634,1.496
	c2.151,0.505,3.762,1.269,4.836,2.291c1.06,1.036,1.59,2.329,1.59,3.882c0,2.045-0.763,3.714-2.286,5.009
	c-1.525,1.293-3.88,1.941-7.069,1.941c-3.251,0-5.652-0.685-7.201-2.055c-1.549-1.369-2.324-3.115-2.324-5.236H323.259z"/>
<path class="st0" d="M20.455,39.407c2.412,0.793,4.366,2.248,5.86,4.362c1.199,1.711,2.016,3.562,2.452,5.553
	c0.436,1.99,0.654,3.888,0.654,5.691c0,4.573-0.918,8.445-2.755,11.618c-2.491,4.277-6.335,6.415-11.534,6.415H0.306V38.661h14.826
	C17.264,38.692,19.038,38.94,20.455,39.407z M7.281,44.632v22.442h6.636c3.396,0,5.763-1.672,7.103-5.016
	c0.732-1.835,1.099-4.021,1.099-6.556c0-3.499-0.549-6.186-1.647-8.06s-3.283-2.812-6.554-2.812H7.281z"/>
<path class="st0" d="M47.275,47.024c0.085,0.008,0.276,0.02,0.572,0.035v6.812c-0.42-0.047-0.793-0.078-1.12-0.094
	c-0.326-0.015-0.591-0.023-0.793-0.023c-2.675,0-4.471,0.872-5.389,2.613c-0.513,0.979-0.77,2.488-0.77,4.525v12.154H33.08V47.619
	h6.345v4.433c1.027-1.695,1.921-2.854,2.683-3.477c1.244-1.042,2.861-1.562,4.852-1.562C47.085,47.012,47.19,47.016,47.275,47.024z"
	/>
<path class="st0" d="M57.789,44.585h-6.742v-6.135h6.742V44.585z M51.047,47.619h6.742v25.428h-6.742V47.619z"/>
<path class="st0" d="M78.938,47.619h7.138l-9.182,25.428h-7.01l-9.119-25.428h7.465l5.295,18.756L78.938,47.619z"/>
<path class="st0" d="M95.723,44.585h-6.742v-6.135h6.742V44.585z M88.981,47.619h6.742v25.428h-6.742V47.619z"/>
<path class="st0" d="M121.712,49.077c1.665,1.376,2.497,3.659,2.497,6.847v17.123h-6.812V57.579c0-1.337-0.178-2.363-0.533-3.079
	c-0.649-1.307-1.884-1.96-3.705-1.96c-2.239,0-3.775,0.957-4.609,2.87c-0.432,1.011-0.648,2.302-0.648,3.872v13.764h-6.648V47.665
	h6.438v3.709c0.852-1.307,1.657-2.247,2.416-2.823c1.363-1.026,3.09-1.539,5.181-1.539C117.906,47.012,120.047,47.7,121.712,49.077z
	"/>
<path class="st0" d="M142.015,47.595c1.615,0.669,2.919,1.897,3.914,3.686v-3.662h6.485V71.74c0,3.282-0.552,5.755-1.657,7.419
	c-1.897,2.861-5.537,4.293-10.917,4.293c-3.251,0-5.902-0.639-7.955-1.913c-2.053-1.275-3.188-3.181-3.406-5.716h7.232
	c0.187,0.777,0.49,1.337,0.91,1.68c0.715,0.606,1.92,0.91,3.616,0.91c2.395,0,3.997-0.802,4.806-2.403
	c0.529-1.026,0.793-2.753,0.793-5.179v-1.633c-0.638,1.089-1.322,1.905-2.053,2.449c-1.322,1.011-3.041,1.517-5.156,1.517
	c-3.266,0-5.875-1.147-7.827-3.441s-2.928-5.4-2.928-9.319c0-3.779,0.94-6.956,2.819-9.53c1.879-2.573,4.543-3.86,7.991-3.86
	C139.957,47.012,141.067,47.206,142.015,47.595z M144.279,65.827c1.069-1.174,1.603-3.045,1.603-5.61
	c0-2.411-0.507-4.246-1.522-5.506c-1.014-1.26-2.373-1.89-4.077-1.89c-2.323,0-3.926,1.097-4.809,3.289
	c-0.465,1.167-0.697,2.605-0.697,4.316c0,1.478,0.248,2.791,0.743,3.942c0.898,2.146,2.509,3.219,4.833,3.219
	C141.902,67.587,143.21,67,144.279,65.827z"/>
<path class="st0" d="M173.803,42.252c2.77-2.83,6.293-4.245,10.57-4.245c5.724,0,9.909,1.897,12.555,5.692
	c1.462,2.131,2.246,4.269,2.354,6.415h-7.185c-0.457-1.648-1.044-2.893-1.76-3.732c-1.28-1.493-3.177-2.24-5.69-2.24
	c-2.56,0-4.579,1.055-6.057,3.161c-1.478,2.108-2.217,5.09-2.217,8.947c0,3.856,0.78,6.745,2.339,8.666
	c1.559,1.921,3.541,2.881,5.944,2.881c2.464,0,4.343-0.824,5.637-2.473c0.715-0.887,1.308-2.216,1.78-3.989h7.139
	c-0.616,3.748-2.189,6.797-4.72,9.146c-2.531,2.348-5.773,3.522-9.728,3.522c-4.893,0-8.74-1.587-11.54-4.76
	c-2.8-3.188-4.201-7.558-4.201-13.11C169.026,50.13,170.618,45.503,173.803,42.252z"/>
<path class="st0" d="M221.804,47.759c1.277,0.545,2.327,1.378,3.147,2.498c0.697,0.95,1.123,1.927,1.277,2.931
	s0.232,2.643,0.232,4.915v14.943h-6.789V57.562c0-1.37-0.231-2.476-0.694-3.316c-0.603-1.183-1.745-1.774-3.427-1.774
	c-1.744,0-3.068,0.588-3.973,1.763c-0.902,1.176-1.354,2.854-1.354,5.033v13.779h-6.648v-34.27h6.648v12.131
	c0.96-1.478,2.07-2.508,3.332-3.091c1.263-0.583,2.59-0.875,3.984-0.875C219.106,46.942,220.526,47.214,221.804,47.759z"/>
<path class="st0" d="M241.83,57.579c1.237-0.155,2.122-0.35,2.655-0.583c0.955-0.404,1.434-1.034,1.434-1.89
	c0-1.042-0.367-1.762-1.1-2.158c-0.733-0.396-1.809-0.595-3.229-0.595c-1.592,0-2.719,0.389-3.381,1.167
	c-0.473,0.575-0.789,1.353-0.945,2.332h-6.416c0.141-2.224,0.766-4.051,1.875-5.481c1.764-2.24,4.795-3.359,9.09-3.359
	c2.796,0,5.279,0.552,7.451,1.656c2.171,1.104,3.256,3.188,3.256,6.252v11.664c0,0.809,0.016,1.789,0.047,2.939
	c0.047,0.871,0.179,1.462,0.396,1.773c0.218,0.311,0.545,0.567,0.98,0.77v0.979h-7.232c-0.202-0.513-0.342-0.995-0.42-1.446
	s-0.14-0.964-0.187-1.539c-0.923,0.995-1.987,1.843-3.191,2.542c-1.438,0.824-3.065,1.236-4.88,1.236
	c-2.316,0-4.229-0.657-5.738-1.971c-1.51-1.314-2.264-3.177-2.264-5.587c0-3.126,1.214-5.39,3.643-6.789
	c1.332-0.762,3.291-1.307,5.875-1.633L241.83,57.579z M245.895,60.682c-0.426,0.265-0.855,0.479-1.289,0.642
	c-0.434,0.164-1.029,0.315-1.785,0.455l-1.514,0.28c-1.419,0.249-2.438,0.552-3.057,0.909c-1.047,0.607-1.57,1.548-1.57,2.823
	c0,1.136,0.32,1.956,0.959,2.461c0.64,0.506,1.418,0.759,2.334,0.759c1.453,0,2.791-0.42,4.015-1.26s1.859-2.372,1.907-4.596V60.682
	z"/>
<path class="st0" d="M264.163,73.046h-6.648V38.661h6.648V73.046z"/>
<path class="st0" d="M276.148,73.046h-6.648V38.661h6.648V73.046z"/>
<path class="st0" d="M298.081,48.133c1.773,0.795,3.238,2.049,4.395,3.762c1.041,1.511,1.717,3.264,2.025,5.257
	c0.179,1.169,0.252,2.851,0.219,5.047H286.2c0.104,2.551,0.989,4.339,2.658,5.365c1.016,0.639,2.238,0.957,3.666,0.957
	c1.516,0,2.746-0.389,3.692-1.167c0.517-0.42,0.972-1.003,1.368-1.749h6.788c-0.179,1.509-1.001,3.041-2.465,4.596
	c-2.278,2.473-5.467,3.709-9.566,3.709c-3.384,0-6.37-1.043-8.957-3.129c-2.587-2.085-3.88-5.479-3.88-10.18
	c0-4.405,1.168-7.783,3.503-10.133c2.335-2.351,5.366-3.526,9.093-3.526C294.313,46.942,296.307,47.339,298.081,48.133z
	 M288.133,53.877c-0.939,0.968-1.529,2.28-1.771,3.936h11.454c-0.121-1.765-0.711-3.104-1.771-4.018
	c-1.06-0.914-2.374-1.371-3.943-1.371C290.396,52.424,289.073,52.909,288.133,53.877z"/>
<path class="st0" d="M328.132,49.077c1.664,1.376,2.496,3.659,2.496,6.847v17.123h-6.811V57.579c0-1.337-0.178-2.363-0.533-3.079
	c-0.648-1.307-1.884-1.96-3.705-1.96c-2.239,0-3.775,0.957-4.609,2.87c-0.432,1.011-0.648,2.302-0.648,3.872v13.764h-6.648V47.665
	h6.439v3.709c0.852-1.307,1.656-2.247,2.416-2.823c1.362-1.026,3.09-1.539,5.18-1.539C324.325,47.012,326.465,47.7,328.132,49.077z"
	/>
<path class="st0" d="M348.434,47.595c1.615,0.669,2.92,1.897,3.914,3.686v-3.662h6.485V71.74c0,3.282-0.552,5.755-1.657,7.419
	c-1.896,2.861-5.536,4.293-10.917,4.293c-3.251,0-5.902-0.639-7.955-1.913c-2.053-1.275-3.188-3.181-3.406-5.716h7.231
	c0.188,0.777,0.49,1.337,0.91,1.68c0.715,0.606,1.921,0.91,3.616,0.91c2.396,0,3.997-0.802,4.806-2.403
	c0.529-1.026,0.793-2.753,0.793-5.179v-1.633c-0.638,1.089-1.322,1.905-2.053,2.449c-1.322,1.011-3.041,1.517-5.156,1.517
	c-3.266,0-5.875-1.147-7.826-3.441s-2.928-5.4-2.928-9.319c0-3.779,0.939-6.956,2.819-9.53c1.88-2.573,4.543-3.86,7.991-3.86
	C346.376,47.012,347.487,47.206,348.434,47.595z M350.698,65.827c1.069-1.174,1.604-3.045,1.604-5.61
	c0-2.411-0.508-4.246-1.521-5.506c-1.015-1.26-2.373-1.89-4.077-1.89c-2.323,0-3.926,1.097-4.809,3.289
	c-0.465,1.167-0.697,2.605-0.697,4.316c0,1.478,0.247,2.791,0.743,3.942c0.898,2.146,2.51,3.219,4.832,3.219
	C348.321,67.587,349.63,67,350.698,65.827z"/>
<path class="st0" d="M380.653,48.133c1.773,0.795,3.238,2.049,4.395,3.762c1.041,1.511,1.717,3.264,2.025,5.257
	c0.18,1.169,0.252,2.851,0.219,5.047h-18.52c0.104,2.551,0.99,4.339,2.659,5.365c1.016,0.639,2.237,0.957,3.666,0.957
	c1.515,0,2.745-0.389,3.692-1.167c0.516-0.42,0.972-1.003,1.367-1.749h6.789c-0.18,1.509-1.001,3.041-2.465,4.596
	c-2.278,2.473-5.467,3.709-9.566,3.709c-3.385,0-6.371-1.043-8.957-3.129c-2.588-2.085-3.881-5.479-3.881-10.18
	c0-4.405,1.168-7.783,3.504-10.133c2.334-2.351,5.365-3.526,9.092-3.526C376.885,46.942,378.88,47.339,380.653,48.133z
	 M370.707,53.877c-0.939,0.968-1.53,2.28-1.771,3.936h11.453c-0.12-1.765-0.711-3.104-1.771-4.018
	c-1.06-0.914-2.374-1.371-3.943-1.371C372.969,52.424,371.646,52.909,370.707,53.877z"/>
</svg>