<!-- Generator: Adobe Illustrator 21.0.2, SVG Export Plug-In  -->
<svg version="1.1"
	 xmlns="http://www.w3.org/2000/svg" xmlns:xlink="http://www.w3.org/1999/xlink" xmlns:a="http://ns.adobe.com/AdobeSVGViewerExtensions/3.0/"
	 x="0px" y="0px" width="83.709px" height="50.38px" viewBox="0 0 83.709 50.38" style="enable-background:new 0 0 83.709 50.38;"
	 xml:space="preserve">
<style type="text/css">
	.st0{stroke:#000000;stroke-miterlimit:10;}
	.st1{fill:#FFFFFF;}
	.st2{font-family:'ArialMT';}
	.st3{font-size:17.7234px;}
</style>
<defs>
</defs>
<polygon class="st0" points="83.209,37.239 0.5,49.798 0.5,13.141 83.209,0.582 "/>
<g>
	<path class="st1" d="M30.924,31.728V19.041h9.173v1.497h-7.494v3.885h7.018v1.489h-7.018v4.318h7.789v1.497H30.924z"/>
	<path class="st1" d="M42.317,27.651l1.583-0.138c0.075,0.635,0.25,1.155,0.523,1.562s0.7,0.735,1.276,0.986
		c0.577,0.251,1.226,0.376,1.947,0.376c0.641,0,1.206-0.095,1.696-0.286s0.855-0.451,1.095-0.783
		c0.239-0.332,0.359-0.693,0.359-1.086c0-0.398-0.115-0.746-0.346-1.043c-0.231-0.297-0.612-0.546-1.143-0.749
		c-0.34-0.132-1.093-0.339-2.259-0.619s-1.981-0.543-2.449-0.792c-0.606-0.317-1.058-0.711-1.354-1.181
		c-0.297-0.47-0.446-0.997-0.446-1.579c0-0.641,0.182-1.239,0.545-1.796c0.363-0.557,0.894-0.979,1.592-1.268
		c0.698-0.289,1.474-0.433,2.328-0.433c0.94,0,1.77,0.152,2.488,0.455s1.271,0.749,1.657,1.337c0.386,0.588,0.594,1.255,0.623,1.999
		l-1.61,0.121c-0.086-0.802-0.379-1.407-0.878-1.817s-1.236-0.615-2.211-0.615c-1.016,0-1.755,0.186-2.22,0.558
		s-0.697,0.821-0.697,1.346c0,0.456,0.165,0.831,0.494,1.125c0.323,0.294,1.167,0.596,2.531,0.904c1.364,0.309,2.3,0.579,2.808,0.81
		c0.738,0.34,1.284,0.771,1.636,1.293c0.352,0.522,0.528,1.124,0.528,1.805c0,0.675-0.193,1.311-0.58,1.908
		c-0.386,0.597-0.942,1.062-1.666,1.393c-0.724,0.332-1.539,0.498-2.444,0.498c-1.148,0-2.11-0.167-2.886-0.502
		s-1.385-0.838-1.826-1.51C42.572,29.26,42.34,28.5,42.317,27.651z"/>
</g>
</svg>